# xmcd
#
# Track frame offsets: 
#        150
#        21701
#        56300
#        76644
#        97184
#        127355
#        162745
#        202900
#        221292
#        238211
#        268609
#        292801
#
# Disc length: 4186 seconds
#
# Revision: 0
# Processed by: cddbd v1.5.2PL0 Copyright (c) Steve Scherf et al.
# Submitted via: ExactAudioCopy v0.95b3
#
DISCID=b010580c
DTITLE=Mott The Hoople  - Fairfield Halls Live 1970  FLAC
DYEAR=1900
DGENRE=
TTITLE0=Ohio
TTITLE1=No Wheels To Ride
TTITLE2=Rock 'N' Roll Queen
TTITLE3=Thunderbuck Ram
TTITLE4=When My Mind's Gone
TTITLE5=Keep A Knockin'
TTITLE6=You Really Got Me
TTITLE7=Long Red
TTITLE8=The Original Mixed Up Kid
TTITLE9=Walking With A Mountain
TTITLE10=Laugh At Me
TTITLE11=Thunderbuck Ram
EXTD=
EXTT0=
EXTT1=
EXTT2=
EXTT3=
EXTT4=
EXTT5=
EXTT6=
EXTT7=
EXTT8=
EXTT9=
EXTT10=
EXTT11=
PLAYORDER=
